<svg xmlns="http://www.w3.org/2000/svg" xml:space="preserve" width="2000" height="80" data-id="lg_ZZZoV51qcxq8wrWk5X" data-version="1" viewBox="0 0 2000 80"><g data-padding="20"><g fill="#9d4edd"><path d="M982.088 18.093a1.763 1.763 0 1 0 0 3.527 1.763 1.763 0 1 0 0-3.527m20.497.993h-11.902a.992.992 0 1 1 0-1.985h11.902a.992.992 0 1 1 0 1.985m-.556 2.863h-10.137a.332.332 0 1 1 0-.663h10.137a.332.332 0 0 1 0 .663m-2.863 1.978h-7.269a.329.329 0 0 1 0-.657h7.269a.332.332 0 1 1 0 .664m1.984 1.978h-9.258a.329.329 0 0 1 0-.657h9.258a.329.329 0 0 1 0 .657m-5.953 1.99h-3.305a.332.332 0 1 1 0-.663h3.305a.332.332 0 1 1 0 .664m8.482 0h-7.168a.332.332 0 1 1 0-.664h7.161a.332.332 0 0 1 0 .664m-15.414 4.62h-8.154a.664.664 0 0 1 0-1.321h8.154a.664.664 0 0 1 0 1.327m-3.528 2.756h-3.962a.332.332 0 1 1 0-.664h3.962a.332.332 0 0 1 0 .664m0 1.978h-3.962a.332.332 0 1 1 0-.663h3.962a.332.332 0 0 1 0 .663m0 1.985h-3.962a.332.332 0 1 1 0-.664h3.962a.332.332 0 0 1 0 .664m0 1.978h-3.962a.329.329 0 0 1 0-.657h3.962a.329.329 0 0 1 0 .657m21.925-5.941h-19.94a.332.332 0 1 1 0-.664h19.94a.332.332 0 1 1 0 .664m0 1.978h-19.94a.332.332 0 1 1 0-.663h19.94a.332.332 0 1 1 0 .663m0 1.985h-19.94a.332.332 0 1 1 0-.664h19.94a.332.332 0 1 1 0 .664m0 1.978h-19.94a.329.329 0 0 1 0-.657h19.94a.329.329 0 0 1 0 .657m-18.398 3.861h-8.152a.664.664 0 0 1 0-1.327h8.152a.664.664 0 0 1 0 1.328m18.404 2.748h-11.016a.329.329 0 0 1 0-.656h11.016a.329.329 0 0 1 0 .657m0 1.984h-11.016a.332.332 0 1 1 0-.663h11.016a.332.332 0 1 1 0 .663m-.006 1.979H995.64a.329.329 0 0 1 0-.658h11.016a.332.332 0 1 1 0 .664m.006 1.985h-11.016a.332.332 0 1 1 0-.664h11.016a.332.332 0 1 1 0 .663m-18.403 3.192h-8.154a.664.664 0 0 1 0-1.327h8.154a.664.664 0 0 1 0 1.327m18.397 2.762h-25.887a.332.332 0 1 1 0-.663h25.887a.332.332 0 1 1 0 .663m0 1.985h-25.887a.332.332 0 1 1 0-.664h25.887a.332.332 0 1 1 0 .664M991.79 47.836h-11.015a.329.329 0 0 1 0-.656h11.015a.329.329 0 0 1 0 .657m0 1.984h-11.015a.332.332 0 1 1 0-.663h11.015a.332.332 0 1 1 0 .663m-.005 1.979h-11.016a.329.329 0 0 1 0-.658h11.016a.332.332 0 1 1 0 .664m.005 1.985h-11.015a.332.332 0 1 1 0-.664h11.015a.332.332 0 1 1 0 .663"/><path d="M978.34 16.11v10.023h7.49V16.109Zm6.826 9.366h-1.093v-1.542a1.985 1.985 0 0 0-3.97 0v1.541h-1.098v-8.702h6.168Z"/><path d="m1020.674 17.474.177-1.586-9.24-1.05v-1.485h-12.97l-9.632-1.794-.133.695-3.931-.442-.177 1.541h-9.29v51.12H993.9l21.236 3.968 9.386-50.246Zm-43.876 45.677V14.674h33.498v48.477Zm37.283 3.748-4.55-.847 4.614.524Zm-.157-1.681-6.555-.746h4.248v-9.044q.101-.076.113-.215a.32.32 0 0 0-.113-.284v-1.397a.33.33 0 1 0 .05-.658h-.05v-1.333l.196.019a.329.329 0 1 0 .076-.651l-.272-.032V49.55l.417.045a.331.331 0 0 0 .076-.658l-.493-.056v-5.985l1.163.126a.329.329 0 1 0 .076-.651l-1.24-.145v-1.328l1.391.158a.331.331 0 0 0 .076-.657l-1.466-.164v-1.328l1.612.178a.331.331 0 0 0 .076-.658l-1.688-.19V36.91l1.832.209a.331.331 0 0 0 .083-.657l-1.915-.216v-6.92a.3.3 0 0 0 .082-.17.32.32 0 0 0-.082-.254v-8.374a.992.992 0 0 0 0-1.903v-2.458l7.774.885Zm6.604-46.43.064-.486Zl2.465.462-6.408 34.275Z"/></g><path fill="transparent" stroke="transparent" d="M965.5 0h69v80h-69z"/></g></svg>