<svg xmlns="http://www.w3.org/2000/svg" xml:space="preserve" width="2000" height="1500" data-id="lg_ZZZoV51qcxq8wrWk5X" data-version="1" viewBox="0 0 2000 1500"><path fill="#fff" stroke="transparent" d="M0 0h2000v1500H0z"/><g data-padding="20"><g transform="translate(-2087.318 -1575.392)scale(2.98884)"><rect width="480.983" height="106.22" x="429.939" y="319.776" fill="none" rx="0" ry="0" transform="translate(362.52 456.21)"/><g transform="translate(153.13 452.19)"><linearGradient id="a" x1="0" x2="7.255" y1="0" y2="0" gradientUnits="objectBoundingBox"><stop offset="0%" stop-color="#ff6cab"/><stop offset="100%" stop-color="#7366ff"/></linearGradient><path fill="url(#a)" d="M807.74 858.126h-8.26v-66.1h25.2q22.95 0 22.95 17.4 0 17.53-23.09 17.53h-16.8Zm39.89 0h-9.36l-17.54-33.46h9.37Zm-39.89-59.3v21.34h16.94q6.98 0 10.74-2.73t3.76-7.87q0-5.19-3.76-7.97-3.76-2.77-10.74-2.77Z" transform="translate(-153.13 -452.19)"/></g><g transform="translate(206.94 460.46)"><linearGradient id="b" x1="-1.106" x2="7.027" y1="0" y2="0" gradientUnits="objectBoundingBox"><stop offset="0%" stop-color="#ff6cab"/><stop offset="100%" stop-color="#7366ff"/></linearGradient><path fill="url(#b)" d="M877.8 859.226q-7.07 0-12.23-3.17-5.16-3.16-7.96-8.97t-2.8-13.7q0-7.94 2.8-13.77t7.89-9q5.1-3.16 11.98-3.16 3.95 0 7.92 1.26t7.25 4.36 5.28 8.49q1.99 5.39 1.99 13.61h-40.16v-6.24h33.46l-2.2 2.89q-.23-6.52-2.11-10.47-1.88-3.94-4.89-5.71t-6.68-1.77q-4.36 0-7.53 2.27-3.16 2.28-4.86 6.64t-1.7 10.64q0 9.28 3.79 14.32 3.78 5.05 10.76 5.05 5 0 8.42-2.52 3.42-2.53 5.03-7.3l7.57 2.57q-1.79 4.32-4.77 7.37t-7.09 4.68-9.16 1.63" transform="translate(-206.94 -460.45)"/></g><g transform="translate(256.09 460.46)"><linearGradient id="c" x1="-2.362" x2="6.878" y1="0" y2="0" gradientUnits="objectBoundingBox"><stop offset="0%" stop-color="#ff6cab"/><stop offset="100%" stop-color="#7366ff"/></linearGradient><path fill="url(#c)" d="M927.3 859.226q-5.37 0-9.76-1.77-4.38-1.76-7.27-5.37-2.89-3.6-3.86-9.15l8.08-1.57q.51 5.83 3.97 8.68 3.47 2.85 8.7 2.85 5.19 0 8.26-2.62 3.08-2.62 3.08-6.38 0-3.21-2.18-5.1-2.18-1.88-6.31-2.66l-6.02-1.15q-2.43-.45-5.05-1.28-2.61-.83-4.88-2.3-2.28-1.46-3.68-3.85t-1.4-6.01q0-4.87 2.55-7.97 2.55-3.09 6.75-4.61 4.2-1.51 9.06-1.51 5.33 0 9.27 1.65 3.95 1.65 6.43 4.73 2.48 3.07 3.3 7.43l-8.49 1.7q-.32-2.8-1.49-4.87-1.17-2.06-3.39-3.19-2.23-1.12-5.76-1.12-4.27 0-7.35 1.79-3.07 1.79-3.07 5.42 0 2.02 1.03 3.44t3.12 2.36 5.26 1.63l6.1 1.29q3.86.78 7.11 2.31 3.26 1.54 5.24 4.25 1.97 2.71 1.97 7.16 0 4.91-2.46 8.47-2.45 3.56-6.79 5.44t-10.07 1.88" transform="translate(-256.08 -460.45)"/></g><g transform="translate(306.27 461.01)"><linearGradient id="d" x1="-2.957" x2="5.051" y1="0" y2="0" gradientUnits="objectBoundingBox"><stop offset="0%" stop-color="#ff6cab"/><stop offset="100%" stop-color="#7366ff"/></linearGradient><path fill="url(#d)" d="M973.35 859.226q-5.19 0-9-2.34t-5.87-6.7q-2.07-4.36-2.07-10.42v-31.21h7.71v30.61q0 6.06 2.3 9.85 2.29 3.78 8.26 3.78 4.45 0 7.71-2.29 3.26-2.3 5.07-6.89 1.82-4.59 1.82-11.47v-23.59h7.71v49.57h-7.25v-11.66l.32 2.02q-1.93 4.59-6.22 7.66-4.29 3.08-10.49 3.08" transform="translate(-306.27 -461)"/></g><g transform="translate(374.27 459.91)"><linearGradient id="e" x1="-2.615" x2="2.338" y1="0" y2="0" gradientUnits="objectBoundingBox"><stop offset="0%" stop-color="#ff6cab"/><stop offset="100%" stop-color="#7366ff"/></linearGradient><path fill="url(#e)" d="M1018.44 858.126h-7.71v-49.57h7.25v8.49q1.75-3.86 5.78-6.73 4.04-2.86 9.6-2.86 4.91 0 8.56 2.68 3.65 2.69 5.44 7.6 2.34-4.55 6.4-7.42 4.06-2.86 9.48-2.86 7.11 0 11.26 5.16 4.16 5.16 4.16 14.3v31.21h-7.71v-30.62q0-4.22-.87-7.27-.88-3.05-2.87-4.71-2-1.65-5.44-1.65-3.77 0-6.77 2.14-3.01 2.13-4.73 6.22-1.72 4.08-1.72 9.96v25.93h-7.71v-30.62q0-4.22-.87-7.27-.88-3.05-2.85-4.71-1.97-1.65-5.37-1.65-3.76 0-6.79 2.11t-4.78 6.2q-1.74 4.08-1.74 10.01Z" transform="translate(-374.26 -459.9)"/></g><g transform="translate(440.77 460.46)"><linearGradient id="f" x1="-5.546" x2="2.587" y1="0" y2="0" gradientUnits="objectBoundingBox"><stop offset="0%" stop-color="#ff6cab"/><stop offset="100%" stop-color="#7366ff"/></linearGradient><path fill="url(#f)" d="M1111.63 859.226q-7.07 0-12.23-3.17-5.16-3.16-7.96-8.97t-2.8-13.7q0-7.94 2.8-13.77t7.89-9q5.09-3.16 11.98-3.16 3.95 0 7.92 1.26t7.25 4.36 5.28 8.49q1.99 5.39 1.99 13.61h-40.16v-6.24h33.46l-2.2 2.89q-.23-6.52-2.11-10.47-1.88-3.94-4.89-5.71t-6.68-1.77q-4.36 0-7.53 2.27-3.16 2.28-4.86 6.64t-1.7 10.64q0 9.28 3.79 14.32 3.78 5.05 10.76 5.05 5 0 8.42-2.52 3.42-2.53 5.03-7.3l7.57 2.57q-1.79 4.32-4.77 7.37t-7.09 4.68-9.16 1.63" transform="translate(-440.76 -460.45)"/></g><g transform="translate(521.83 452.19)"><linearGradient id="g" x1="-5.688" x2=".758" y1="0" y2="0" gradientUnits="objectBoundingBox"><stop offset="0%" stop-color="#ff6cab"/><stop offset="100%" stop-color="#7366ff"/></linearGradient><path fill="url(#g)" d="M1169.08 858.126h-8.81l27.91-66.1h8.26l27.81 66.1h-8.81l-23.13-57.47Zm40.85-21.67h-35.34v-6.79h35.34Z" transform="translate(-521.83 -452.19)"/></g><g transform="translate(564.91 449.88)"><linearGradient id="h" x1="-20.052" x2="1.274" y1="0" y2="0" gradientUnits="objectBoundingBox"><stop offset="0%" stop-color="#ff6cab"/><stop offset="100%" stop-color="#7366ff"/></linearGradient><path fill="url(#h)" d="M1239.19 858.126h-7.71v-49.57h7.71Zm-3.86-57.88q-2.66 0-4.54-1.88t-1.88-4.55q0-2.7 1.88-4.56t4.54-1.86q2.71 0 4.57 1.86t1.86 4.56q0 2.67-1.86 4.55t-4.57 1.88" transform="translate(-564.9 -449.88)"/></g><path fill="#5a189a" d="M873.44 678.656v-2.03h-24.45l-33.52-2.78-.23 2.78h-3.8v45.78l-3 36.15 3 .25v2.82h34.02l24.77 2.06.17-2.06h3.04v-36.65l3.82-46Zm-56.14-2.65 7.51.62h-7.56Zm-6.7 80.72.84-10.14v10.21Zm60.84-76.23v79.13h-58v-81h58Zm2 .17 1.66.14-1.66 19.99Z"/><path fill="#5a189a" d="M840.44 692.626a1 1 0 0 1-1 1h-21a1 1 0 0 1 0-2h21a1 1 0 0 1 1 1m0 6a1 1 0 0 1-1 1h-21a1 1 0 0 1 0-2h21a1 1 0 0 1 1 1m0 6a1 1 0 0 1-1 1h-21a1 1 0 1 1 0-2h21a1 1 0 0 1 1 1m27 10a1 1 0 0 1-1 1h-48a1 1 0 1 1 0-2h48a1 1 0 0 1 1 1m0 6a1 1 0 0 1-1 1h-48a1 1 0 1 1 0-2h48a1 1 0 0 1 1 1m0 6a1 1 0 0 1-1 1h-48a1 1 0 1 1 0-2h48a1 1 0 0 1 1 1m0 6a1 1 0 0 1-1 1h-48a1 1 0 0 1 0-2h48a1 1 0 0 1 1 1m0 7a1 1 0 0 1-1 1h-48a1 1 0 0 1 0-2h48a1 1 0 0 1 1 1m0 7a1 1 0 0 1-1 1h-48a1 1 0 0 1 0-2h48a1 1 0 0 1 1 1m-20 7a1 1 0 0 1-1 1h-28a1 1 0 0 1 0-2h28a1 1 0 0 1 1 1m8-70.48a5.78 5.78 0 1 0 0 11.56 5.78 5.78 0 1 0 0-11.56m8.99 17.34c-.35-4.38-4.26-5.14-9-5.14s-8.64.76-8.99 5.14v5.14h3.21v-3.85s0-1.29.65-1.29v5.14h10.28v-5.14c.64 0 .64 1.29.64 1.29v3.85h3.22Zm-9 3.86-.99-1.28 1-6.43.98 6.43Z"/><path fill="#7b2cbf" d="M964.275 680.941v-2.1h-2.1v-2.1h-54.6v79.8h2.1v2.1h2.1v2.1h54.6v-79.8Zm-55.65 74.55v-77.7h52.5v77.7Zm2.1 2.1v-1.05h51.45v-76.65h1.05v77.7Zm54.6 2.1h-52.5v-1.05h51.45v-76.65h1.05Z"/><path fill="#7b2cbf" d="M956.925 708.241a1.05 1.05 0 0 1-1.05 1.05h-42a1.05 1.05 0 1 1 0-2.1h42a1.05 1.05 0 0 1 1.05 1.05m0 5.25a1.05 1.05 0 0 1-1.05 1.05h-42a1.05 1.05 0 1 1 0-2.1h42a1.05 1.05 0 0 1 1.05 1.05m0 5.25a1.05 1.05 0 0 1-1.05 1.05h-42a1.05 1.05 0 1 1 0-2.1h42a1.05 1.05 0 0 1 1.05 1.05m0 5.25a1.05 1.05 0 0 1-1.05 1.05h-42a1.05 1.05 0 1 1 0-2.1h42a1.05 1.05 0 0 1 1.05 1.05m0 5.25a1.05 1.05 0 0 1-1.05 1.05h-42a1.05 1.05 0 1 1 0-2.1h42a1.05 1.05 0 0 1 1.05 1.05m0 5.25a1.05 1.05 0 0 1-1.05 1.05h-42a1.05 1.05 0 0 1 0-2.1h42a1.05 1.05 0 0 1 1.05 1.05m0 5.25a1.05 1.05 0 0 1-1.05 1.05h-42a1.05 1.05 0 0 1 0-2.1h42a1.05 1.05 0 0 1 1.05 1.05m-22.05 5.25a1.05 1.05 0 0 1-1.05 1.05h-19.95a1.05 1.05 0 0 1 0-2.1h19.95a1.05 1.05 0 0 1 1.05 1.05m0-48.3a1.05 1.05 0 0 1-1.05 1.05h-19.95a1.05 1.05 0 0 1 0-2.1h19.95a1.05 1.05 0 0 1 1.05 1.05m-6.3 5.25a1.05 1.05 0 0 1-1.05 1.05h-13.65a1.05 1.05 0 1 1 0-2.1h13.65a1.05 1.05 0 0 1 1.05 1.05m21-17.85a4.2 4.2 0 1 0 0 8.4 4.2 4.2 0 1 0 0-8.4m6.3 14.175c0 5.775 0 5.775-6.3 5.775s-6.3 0-6.3-5.775c0-3.192 0-5.25 6.3-5.25s6.3 2.058 6.3 5.25"/><path fill="#9d4edd" d="M1006.782 687.973a2.483 2.483 0 1 0 0 4.966 2.483 2.483 0 1 0 0-4.966m28.863 1.398h-16.76a1.397 1.397 0 1 1 0-2.795h16.76a1.397 1.397 0 1 1 0 2.795m-.783 4.031h-14.275a.467.467 0 1 1 0-.934h14.275a.467.467 0 0 1 0 .934m-4.032 2.786h-10.235a.463.463 0 0 1 0-.926h10.235a.467.467 0 1 1 0 .935m2.795 2.786h-13.038a.463.463 0 0 1 0-.926h13.038a.463.463 0 0 1 0 .926m-8.384 2.803h-4.654a.467.467 0 1 1 0-.934h4.654a.467.467 0 1 1 0 .934m11.944 0h-10.093a.467.467 0 1 1 0-.934h10.084a.467.467 0 0 1 0 .934m-21.706 6.506h-11.482a.935.935 0 0 1 0-1.86h11.48a.935.935 0 0 1 0 1.869m-4.965 3.88h-5.58a.467.467 0 1 1 0-.934h5.58a.467.467 0 0 1 0 .934m0 2.786h-5.58a.467.467 0 1 1 0-.935h5.58a.467.467 0 0 1 0 .935m0 2.795h-5.58a.467.467 0 1 1 0-.935h5.58a.467.467 0 0 1 0 .935m0 2.785h-5.58a.463.463 0 0 1 0-.925h5.58a.463.463 0 0 1 0 .925m30.874-8.366h-28.08a.467.467 0 1 1 0-.934h28.08a.467.467 0 1 1 0 .934m0 2.786h-28.08a.467.467 0 1 1 0-.935h28.08a.467.467 0 1 1 0 .935m0 2.795h-28.08a.467.467 0 1 1 0-.935h28.08a.467.467 0 1 1 0 .935m0 2.785h-28.08a.463.463 0 0 1 0-.925h28.08a.463.463 0 0 1 0 .925m-25.908 5.438h-11.48a.935.935 0 0 1 0-1.869h11.48a.935.935 0 0 1 0 1.87m25.916 3.87h-15.513a.463.463 0 0 1 0-.925h15.513a.463.463 0 0 1 0 .926m0 2.794h-15.513a.467.467 0 1 1 0-.934h15.513a.467.467 0 1 1 0 .934m-.008 2.786h-15.513a.463.463 0 0 1 0-.926h15.513a.467.467 0 1 1 0 .935m.008 2.795h-15.513a.467.467 0 1 1 0-.935h15.513a.467.467 0 1 1 0 .935m-25.915 4.494h-11.482a.935.935 0 0 1 0-1.869h11.48a.935.935 0 0 1 0 1.869m25.909 3.889h-36.454a.467.467 0 1 1 0-.934h36.454a.467.467 0 1 1 0 .934m0 2.795h-36.454a.467.467 0 1 1 0-.935h36.454a.467.467 0 1 1 0 .935m-20.934-19.563h-15.512a.463.463 0 0 1 0-.925h15.512a.463.463 0 0 1 0 .926m0 2.794h-15.512a.467.467 0 1 1 0-.934h15.512a.467.467 0 1 1 0 .934m-.008 2.786h-15.512a.463.463 0 0 1 0-.926h15.512a.467.467 0 1 1 0 .935m.008 2.795h-15.512a.467.467 0 1 1 0-.935h15.512a.467.467 0 1 1 0 .935"/><path fill="#9d4edd" d="M1001.505 685.179v14.115h10.547v-14.115Zm9.612 13.19h-1.54v-2.172a2.795 2.795 0 0 0-5.59 0v2.171h-1.547v-12.255h8.686Z"/><path fill="#9d4edd" d="m1061.117 687.101.25-2.234-13.012-1.477v-2.092h-18.263l-13.564-2.527-.187.979-5.536-.623-.25 2.171h-13.082v71.984h25.944l29.904 5.589 13.216-70.755Zm-61.784 64.32v-68.263h47.17v68.263Zm52.5 5.278-6.407-1.193 6.497.74Zm-.221-2.367-9.23-1.05h5.98v-12.736q.144-.107.16-.303a.45.45 0 0 0-.16-.4v-1.967a.465.465 0 1 0 .073-.926h-.072v-1.878l.276.027a.463.463 0 1 0 .107-.917l-.383-.044v-1.87l.588.063a.466.466 0 0 0 .107-.926l-.695-.08v-8.428l1.638.178a.463.463 0 1 0 .107-.917l-1.745-.205v-1.869l1.958.223a.466.466 0 0 0 .107-.926l-2.064-.231v-1.869l2.269.25a.466.466 0 0 0 .107-.926l-2.376-.267v-1.87l2.58.294a.466.466 0 0 0 .116-.925l-2.696-.303v-9.745a.45.45 0 0 0 .115-.24.45.45 0 0 0-.115-.357V691.4a1.397 1.397 0 0 0 0-2.68v-3.461l10.947 1.246Zm9.3-65.38.09-.685Zl3.47.65-9.023 48.265Z"/><path fill="#c77dff" d="M1150.43 679.846v-2.16h-2.16v-2.16h-56.16v82.08h2.16v2.16h2.16v2.16h56.16v-82.08Zm-57.24 76.68v-79.92h54v79.92Zm2.16 2.16v-1.08h52.92v-78.84h1.08v79.92Zm56.16 2.16h-54v-1.08h52.92v-78.84h1.08Z"/><path fill="#c77dff" d="M1142.87 707.926a1.08 1.08 0 0 1-1.08 1.08h-43.2a1.08 1.08 0 1 1 0-2.16h43.2a1.08 1.08 0 0 1 1.08 1.08m0 5.4a1.08 1.08 0 0 1-1.08 1.08h-43.2a1.08 1.08 0 1 1 0-2.16h43.2a1.08 1.08 0 0 1 1.08 1.08m0 5.4a1.08 1.08 0 0 1-1.08 1.08h-43.2a1.08 1.08 0 1 1 0-2.16h43.2a1.08 1.08 0 0 1 1.08 1.08m0 5.4a1.08 1.08 0 0 1-1.08 1.08h-43.2a1.08 1.08 0 1 1 0-2.16h43.2a1.08 1.08 0 0 1 1.08 1.08m0 5.4a1.08 1.08 0 0 1-1.08 1.08h-43.2a1.08 1.08 0 1 1 0-2.16h43.2a1.08 1.08 0 0 1 1.08 1.08m0 5.4a1.08 1.08 0 0 1-1.08 1.08h-43.2a1.08 1.08 0 0 1 0-2.16h43.2a1.08 1.08 0 0 1 1.08 1.08m0 5.4a1.08 1.08 0 0 1-1.08 1.08h-43.2a1.08 1.08 0 0 1 0-2.16h43.2a1.08 1.08 0 0 1 1.08 1.08m-22.68 5.4a1.08 1.08 0 0 1-1.08 1.08h-20.52a1.08 1.08 0 0 1 0-2.16h20.52a1.08 1.08 0 0 1 1.08 1.08m0-49.68a1.08 1.08 0 0 1-1.08 1.08h-20.52a1.08 1.08 0 0 1 0-2.16h20.52a1.08 1.08 0 0 1 1.08 1.08m-6.48 5.4a1.08 1.08 0 0 1-1.08 1.08h-14.04a1.08 1.08 0 1 1 0-2.16h14.04a1.08 1.08 0 0 1 1.08 1.08m21.6-18.36a4.32 4.32 0 1 0 0 8.64 4.32 4.32 0 1 0 0-8.64m6.48 14.58c0 5.94 0 5.94-6.48 5.94s-6.48 0-6.48-5.94c0-3.283 0-5.4 6.48-5.4s6.48 2.117 6.48 5.4"/><path fill="#e0aaff" d="M1238.94 678.656v-2.03h-24.45l-33.52-2.78-.23 2.78h-3.8v45.78l-3 36.15 3 .25v2.82h34.02l24.77 2.06.17-2.06h3.04v-36.65l3.82-46Zm-56.14-2.65 7.51.62h-7.56Zm-6.7 80.72.84-10.14v10.21Zm60.84-76.23v79.13h-58v-81h58Zm2 .17 1.66.14-1.66 19.99Z"/><path fill="#e0aaff" d="M1205.94 692.626a1 1 0 0 1-1 1h-21a1 1 0 0 1 0-2h21a1 1 0 0 1 1 1m0 6a1 1 0 0 1-1 1h-21a1 1 0 0 1 0-2h21a1 1 0 0 1 1 1m0 6a1 1 0 0 1-1 1h-21a1 1 0 1 1 0-2h21a1 1 0 0 1 1 1m27 10a1 1 0 0 1-1 1h-48a1 1 0 1 1 0-2h48a1 1 0 0 1 1 1m0 6a1 1 0 0 1-1 1h-48a1 1 0 1 1 0-2h48a1 1 0 0 1 1 1m0 6a1 1 0 0 1-1 1h-48a1 1 0 1 1 0-2h48a1 1 0 0 1 1 1m0 6a1 1 0 0 1-1 1h-48a1 1 0 0 1 0-2h48a1 1 0 0 1 1 1m0 7a1 1 0 0 1-1 1h-48a1 1 0 0 1 0-2h48a1 1 0 0 1 1 1m0 7a1 1 0 0 1-1 1h-48a1 1 0 0 1 0-2h48a1 1 0 0 1 1 1m-20 7a1 1 0 0 1-1 1h-28a1 1 0 0 1 0-2h28a1 1 0 0 1 1 1m8-70.48a5.78 5.78 0 1 0 0 11.56 5.78 5.78 0 1 0 0-11.56m8.99 17.34c-.35-4.38-4.26-5.14-9-5.14s-8.64.76-8.99 5.14v5.14h3.21v-3.85s0-1.29.65-1.29v5.14h10.28v-5.14c.64 0 .64 1.29.64 1.29v3.85h3.22Zm-9 3.86-.99-1.28 1-6.43.98 6.43Z"/></g><path fill="transparent" stroke="transparent" stroke-width="3.119" d="M250 425.676h1500v648.648H250z"/></g></svg>